<?xml version="1.0" encoding="UTF-8" standalone="no"?>
<svg
   width="78.22654mm"
   height="78.226799mm"
   viewBox="0 0 78.226537 78.226798"
   version="1.1"
   id="svg1427"
   inkscape:version="1.2 (dc2aedaf03, 2022-05-15)"
   sodipodi:docname="macula.svg"
   xmlns:inkscape="http://www.inkscape.org/namespaces/inkscape"
   xmlns:sodipodi="http://sodipodi.sourceforge.net/DTD/sodipodi-0.dtd"
   xmlns="http://www.w3.org/2000/svg"
   xmlns:svg="http://www.w3.org/2000/svg"
   xmlns:rdf="http://www.w3.org/1999/02/22-rdf-syntax-ns#"
   xmlns:cc="http://creativecommons.org/ns#"
   xmlns:dc="http://purl.org/dc/elements/1.1/">
  <defs
     id="defs1421" />
  <sodipodi:namedview
     id="base"
     pagecolor="#ffffff"
     bordercolor="#666666"
     borderopacity="1.0"
     inkscape:pageopacity="0.0"
     inkscape:pageshadow="2"
     inkscape:zoom="0.70710678"
     inkscape:cx="51.618795"
     inkscape:cy="94.752308"
     inkscape:document-units="mm"
     inkscape:current-layer="layer1"
     inkscape:document-rotation="0"
     showgrid="false"
     fit-margin-top="0"
     fit-margin-left="0"
     fit-margin-right="0"
     fit-margin-bottom="0"
     inkscape:window-width="1920"
     inkscape:window-height="1027"
     inkscape:window-x="-8"
     inkscape:window-y="-8"
     inkscape:window-maximized="1"
     inkscape:snap-bbox="true"
     inkscape:snap-object-midpoints="true"
     inkscape:snap-global="true"
     inkscape:showpageshadow="0"
     inkscape:pagecheckerboard="0"
     inkscape:deskcolor="#d1d1d1" />
  <metadata
     id="metadata1424">
    <rdf:RDF>
      <cc:Work
         rdf:about="">
        <dc:format>image/svg+xml</dc:format>
        <dc:type
           rdf:resource="http://purl.org/dc/dcmitype/StillImage" />
      </cc:Work>
    </rdf:RDF>
  </metadata>
  <g
     inkscape:label="Слой 1"
     inkscape:groupmode="layer"
     id="layer1"
     transform="translate(617.06496,-355.21717)">
    <circle
       style="font-variation-settings:normal;fill:#363b34;fill-opacity:1;fill-rule:evenodd;stroke:none;stroke-width:9.4257;stroke-linecap:butt;stroke-linejoin:round;stroke-miterlimit:4;stroke-dasharray:none;stroke-dashoffset:0;stroke-opacity:1;stop-color:#000000"
       id="path70097-91-83-9-3-5-4-5-0-0-8-5-3-7-6-6-8-8-8-2-4-2-5-7-7-7-03-3-3-9-2-4-3-6-5-2-8-0-3-0"
       cx="-577.95172"
       cy="394.33026"
       r="34.399834" />
    <path
       style="color:#000000;fill:#6b7468;fill-rule:evenodd;stroke:none;stroke-linejoin:round"
       d="m -577.95169,355.21737 c -21.5455,0 -39.11327,17.5677 -39.11327,39.1133 0,21.5455 17.56777,39.1133 39.11327,39.1133 21.54549,0 39.11327,-17.5678 39.11327,-39.1133 0,-21.5456 -17.56778,-39.1133 -39.11327,-39.1133 z m 0,9.4258 c 16.45148,0 29.68749,13.2359 29.68749,29.6875 0,16.4515 -13.23601,29.6875 -29.68749,29.6875 -16.45148,0 -29.68749,-13.236 -29.68749,-29.6875 0,-16.4516 13.23601,-29.6875 29.68749,-29.6875 z"
       id="circle152032-4-0-2-8-3-3-5-0-2-6-2-7-1-8-9-18-4-6-0-2-7-3-5-3-3-4-5-1-7" />
    <path
       id="rect51589-2-7-0-4-8-6"
       style="fill:#879281;fill-opacity:1;stroke-width:3;stroke-linecap:round;stroke-linejoin:round;paint-order:markers fill stroke;stop-color:#000000"
       d="m -577.95159,355.21717 c -16.99881,0 -31.5189,10.937 -36.89129,26.1338 l 8.88267,3.0804 c 4.05781,-11.5524 15.03209,-19.7884 28.00862,-19.7884 12.97652,0 23.9508,8.236 28.00862,19.7884 l 8.88266,-3.0804 c -5.37239,-15.1968 -19.89249,-26.1338 -36.89128,-26.1338 z" />
    <path
       id="path1026"
       style="fill:#52c25d;fill-opacity:1;stroke:none;stroke-width:0.265844px;stroke-linecap:butt;stroke-linejoin:miter;stroke-opacity:1"
       d="m -596.52412,393.89531 c -3.71022,-0.0316 -8.00142,-0.55989 -7.98692,2.00803 0.0258,4.5739 1.29178,9.12441 4.00399,12.74855 0.69334,0.92647 2.05071,1.10078 3.13546,1.28148 8.07585,1.34526 16.30129,1.1869 24.46199,1.12995 4.81555,-0.0501 9.64468,-0.3426 14.39682,-1.12995 1.0849,-0.17976 2.44212,-0.355 3.13546,-1.28148 2.71237,-3.62443 3.93557,-7.98956 4.00399,-12.74855 0.0334,-2.32321 -6.29933,-2.06144 -8.35824,-2.00803 -4.70551,0.12206 -9.72539,-0.0409 -13.84991,2.54489 -2.83448,1.54431 -6.33282,1.5371 -9.11685,0 -4.15768,-2.45668 -10.72497,-2.50244 -13.82582,-2.54489 z"
       sodipodi:nodetypes="cssscsssscccc" />
    <path
       id="path1105"
       style="font-variation-settings:normal;opacity:1;vector-effect:none;fill:#ece037;fill-opacity:1;stroke:none;stroke-width:0.353255px;stroke-linecap:butt;stroke-linejoin:miter;stroke-miterlimit:4;stroke-dasharray:none;stroke-dashoffset:0;stroke-opacity:1;-inkscape-stroke:none;stop-color:#000000;stop-opacity:1"
       d="m -552.76719,403.83852 a 65.293945,18.895956 0 0 1 -25.18399,1.46399 65.293945,18.895956 0 0 1 -25.15712,-1.46037 c 0.63809,1.71561 1.50067,3.33871 2.60139,4.80952 0.69334,0.92647 2.05046,1.10088 3.13521,1.28158 8.07584,1.34526 16.30138,1.18711 24.46207,1.13016 4.81555,-0.0501 9.64492,-0.34281 14.39706,-1.13016 1.0849,-0.17976 2.44187,-0.3551 3.13521,-1.28158 1.11328,-1.48763 1.97552,-3.09993 2.61017,-4.81314 z" />
    <path
       id="path1202"
       style="font-variation-settings:normal;opacity:1;vector-effect:none;fill:#f17e37;fill-opacity:1;stroke:none;stroke-width:2.78212;stroke-linecap:round;stroke-linejoin:round;stroke-miterlimit:4;stroke-dasharray:none;stroke-dashoffset:0;stroke-opacity:1;-inkscape-stroke:none;paint-order:markers fill stroke;stop-color:#000000;stop-opacity:1"
       d="m -577.95118,376.2066 a 15.742708,15.742708 0 0 0 -15.71687,15.11174 c 3.35323,0.1444 7.8427,0.62803 10.96987,2.47581 2.78403,1.5371 6.28228,1.54431 9.11676,0 3.40308,-2.1335 7.41531,-2.39526 11.35796,-2.49028 a 15.742708,15.742708 0 0 0 -15.72772,-15.09727 z" />
  </g>
</svg>
